<mxfile host="app.diagrams.net" agent="Mozilla/5.0 (Windows NT 10.0; Win64; x64; rv:142.0) Gecko/20100101 Firefox/142.0" version="28.1.2">
  <diagram name="Page-1" id="WwSxM6BxsVKRUhCgooLq">
    <mxGraphModel dx="872" dy="515" grid="1" gridSize="10" guides="1" tooltips="1" connect="1" arrows="1" fold="1" page="1" pageScale="1" pageWidth="850" pageHeight="1100" math="0" shadow="0">
      <root>
        <mxCell id="0" />
        <mxCell id="1" parent="0" />
        <mxCell id="TD3PupjgS00Jkk77CNHz-27" style="edgeStyle=orthogonalEdgeStyle;rounded=0;orthogonalLoop=1;jettySize=auto;html=1;entryX=0.5;entryY=0;entryDx=0;entryDy=0;" edge="1" parent="1" source="TD3PupjgS00Jkk77CNHz-1" target="TD3PupjgS00Jkk77CNHz-2">
          <mxGeometry relative="1" as="geometry" />
        </mxCell>
        <mxCell id="TD3PupjgS00Jkk77CNHz-1" value="&lt;font style=&quot;font-size: 12px;&quot; face=&quot;Times New Roman&quot;&gt;&lt;b&gt;START&amp;nbsp;&lt;/b&gt;&lt;/font&gt;" style="ellipse;whiteSpace=wrap;html=1;" vertex="1" parent="1">
          <mxGeometry x="40" y="65" width="160" height="110" as="geometry" />
        </mxCell>
        <mxCell id="TD3PupjgS00Jkk77CNHz-2" value="&lt;div&gt;&lt;font face=&quot;Times New Roman&quot;&gt;USER ENTRY&lt;/font&gt;&lt;/div&gt;&lt;div&gt;&lt;font face=&quot;Times New Roman&quot;&gt;&lt;br&gt;&lt;/font&gt;&lt;/div&gt;&lt;div&gt;&lt;font face=&quot;Times New Roman&quot;&gt;Name:&lt;/font&gt;&lt;/div&gt;&lt;div&gt;&lt;font face=&quot;Times New Roman&quot;&gt;E-mail:&lt;/font&gt;&lt;/div&gt;&lt;div&gt;&lt;font face=&quot;Times New Roman&quot;&gt;Password:&lt;/font&gt;&lt;/div&gt;" style="rhombus;whiteSpace=wrap;html=1;fontStyle=1" vertex="1" parent="1">
          <mxGeometry x="25" y="230" width="190" height="140" as="geometry" />
        </mxCell>
        <mxCell id="TD3PupjgS00Jkk77CNHz-14" value="" style="edgeStyle=orthogonalEdgeStyle;rounded=0;orthogonalLoop=1;jettySize=auto;html=1;" edge="1" parent="1">
          <mxGeometry relative="1" as="geometry">
            <mxPoint x="349.5" y="192.5" as="sourcePoint" />
            <mxPoint x="349.5" y="260" as="targetPoint" />
          </mxGeometry>
        </mxCell>
        <mxCell id="TD3PupjgS00Jkk77CNHz-15" value="Yes" style="edgeLabel;html=1;align=center;verticalAlign=middle;resizable=0;points=[];" vertex="1" connectable="0" parent="TD3PupjgS00Jkk77CNHz-14">
          <mxGeometry x="-0.0963" y="2" relative="1" as="geometry">
            <mxPoint x="9" y="8" as="offset" />
          </mxGeometry>
        </mxCell>
        <mxCell id="TD3PupjgS00Jkk77CNHz-4" value="&lt;div&gt;&lt;font face=&quot;Times New Roman&quot;&gt;&lt;b&gt;DECISION&lt;/b&gt;&lt;/font&gt;&lt;/div&gt;&lt;div&gt;&lt;font face=&quot;Times New Roman&quot;&gt;&lt;i&gt;&lt;b&gt;&lt;br&gt;&lt;/b&gt;&lt;/i&gt;&lt;/font&gt;&lt;/div&gt;&lt;div&gt;&lt;font face=&quot;Times New Roman&quot;&gt;&lt;i&gt;&lt;b&gt;Valid input?&lt;/b&gt;&lt;/i&gt;&lt;/font&gt;&lt;/div&gt;" style="whiteSpace=wrap;html=1;aspect=fixed;" vertex="1" parent="1">
          <mxGeometry x="290" y="72.5" width="120" height="120" as="geometry" />
        </mxCell>
        <mxCell id="TD3PupjgS00Jkk77CNHz-7" value="&lt;div&gt;&lt;font face=&quot;Times New Roman&quot;&gt;&lt;b&gt;DECISION&lt;/b&gt;&lt;/font&gt;&lt;/div&gt;&lt;div&gt;&lt;font face=&quot;Times New Roman&quot;&gt;&lt;b&gt;&lt;br&gt;&lt;/b&gt;&lt;/font&gt;&lt;/div&gt;&lt;div&gt;&lt;font face=&quot;Times New Roman&quot;&gt;E-mail exist?&lt;/font&gt;&lt;/div&gt;" style="shape=hexagon;perimeter=hexagonPerimeter2;whiteSpace=wrap;html=1;fixedSize=1;" vertex="1" parent="1">
          <mxGeometry x="285" y="260" width="130" height="90" as="geometry" />
        </mxCell>
        <mxCell id="TD3PupjgS00Jkk77CNHz-8" value="&lt;font face=&quot;Times New Roman&quot;&gt;&lt;b&gt;HASH PASSWORD&lt;/b&gt;&lt;/font&gt;" style="rounded=1;whiteSpace=wrap;html=1;" vertex="1" parent="1">
          <mxGeometry x="450" y="60" width="140" height="95" as="geometry" />
        </mxCell>
        <mxCell id="TD3PupjgS00Jkk77CNHz-9" value="&lt;font face=&quot;Times New Roman&quot;&gt;&lt;b&gt;SAVE USER TO DB&lt;/b&gt;&lt;/font&gt;" style="rounded=1;whiteSpace=wrap;html=1;" vertex="1" parent="1">
          <mxGeometry x="450" y="280" width="150" height="60" as="geometry" />
        </mxCell>
        <mxCell id="TD3PupjgS00Jkk77CNHz-10" value="&lt;font face=&quot;Times New Roman&quot;&gt;&lt;b&gt;END&lt;/b&gt;&lt;/font&gt;" style="ellipse;whiteSpace=wrap;html=1;" vertex="1" parent="1">
          <mxGeometry x="670" y="430" width="120" height="80" as="geometry" />
        </mxCell>
        <mxCell id="TD3PupjgS00Jkk77CNHz-11" value="&lt;font face=&quot;Times New Roman&quot;&gt;&lt;b&gt;SEND CONFIRMATION E-MAIL&lt;/b&gt;&lt;/font&gt;" style="shape=hexagon;perimeter=hexagonPerimeter2;whiteSpace=wrap;html=1;fixedSize=1;" vertex="1" parent="1">
          <mxGeometry x="620" y="100" width="180" height="80" as="geometry" />
        </mxCell>
        <mxCell id="TD3PupjgS00Jkk77CNHz-12" value="&lt;font face=&quot;Times New Roman&quot;&gt;&lt;b&gt;SHOW SUCCESS MESSAGE&lt;/b&gt;&lt;/font&gt;" style="whiteSpace=wrap;html=1;aspect=fixed;" vertex="1" parent="1">
          <mxGeometry x="660" y="230" width="120" height="120" as="geometry" />
        </mxCell>
        <mxCell id="TD3PupjgS00Jkk77CNHz-13" style="edgeStyle=orthogonalEdgeStyle;rounded=0;orthogonalLoop=1;jettySize=auto;html=1;entryX=0.017;entryY=0.392;entryDx=0;entryDy=0;entryPerimeter=0;" edge="1" parent="1" source="TD3PupjgS00Jkk77CNHz-1" target="TD3PupjgS00Jkk77CNHz-4">
          <mxGeometry relative="1" as="geometry" />
        </mxCell>
        <mxCell id="TD3PupjgS00Jkk77CNHz-18" value="" style="endArrow=classic;html=1;rounded=0;" edge="1" parent="1">
          <mxGeometry width="50" height="50" relative="1" as="geometry">
            <mxPoint x="310" y="260" as="sourcePoint" />
            <mxPoint x="310" y="200" as="targetPoint" />
          </mxGeometry>
        </mxCell>
        <mxCell id="TD3PupjgS00Jkk77CNHz-19" value="No" style="text;html=1;align=center;verticalAlign=middle;resizable=0;points=[];autosize=1;strokeColor=none;fillColor=none;" vertex="1" parent="1">
          <mxGeometry x="280" y="210" width="40" height="30" as="geometry" />
        </mxCell>
        <mxCell id="TD3PupjgS00Jkk77CNHz-22" style="edgeStyle=orthogonalEdgeStyle;rounded=0;orthogonalLoop=1;jettySize=auto;html=1;exitX=0.5;exitY=1;exitDx=0;exitDy=0;entryX=0.42;entryY=0.067;entryDx=0;entryDy=0;entryPerimeter=0;" edge="1" parent="1" source="TD3PupjgS00Jkk77CNHz-8" target="TD3PupjgS00Jkk77CNHz-9">
          <mxGeometry relative="1" as="geometry" />
        </mxCell>
        <mxCell id="TD3PupjgS00Jkk77CNHz-23" value="" style="endArrow=classic;html=1;rounded=0;entryX=0.244;entryY=1;entryDx=0;entryDy=0;entryPerimeter=0;" edge="1" parent="1" target="TD3PupjgS00Jkk77CNHz-11">
          <mxGeometry width="50" height="50" relative="1" as="geometry">
            <mxPoint x="560" y="280" as="sourcePoint" />
            <mxPoint x="610" y="230" as="targetPoint" />
            <Array as="points">
              <mxPoint x="560" y="210" />
              <mxPoint x="664" y="210" />
            </Array>
          </mxGeometry>
        </mxCell>
        <mxCell id="TD3PupjgS00Jkk77CNHz-24" style="edgeStyle=orthogonalEdgeStyle;rounded=0;orthogonalLoop=1;jettySize=auto;html=1;entryX=0.408;entryY=0.025;entryDx=0;entryDy=0;entryPerimeter=0;" edge="1" parent="1" source="TD3PupjgS00Jkk77CNHz-11" target="TD3PupjgS00Jkk77CNHz-12">
          <mxGeometry relative="1" as="geometry" />
        </mxCell>
        <mxCell id="TD3PupjgS00Jkk77CNHz-26" style="edgeStyle=orthogonalEdgeStyle;rounded=0;orthogonalLoop=1;jettySize=auto;html=1;entryX=0.417;entryY=0;entryDx=0;entryDy=0;entryPerimeter=0;" edge="1" parent="1" source="TD3PupjgS00Jkk77CNHz-12" target="TD3PupjgS00Jkk77CNHz-10">
          <mxGeometry relative="1" as="geometry" />
        </mxCell>
        <mxCell id="TD3PupjgS00Jkk77CNHz-28" value="" style="endArrow=classic;html=1;rounded=0;entryX=-0.017;entryY=0.621;entryDx=0;entryDy=0;entryPerimeter=0;" edge="1" parent="1" target="TD3PupjgS00Jkk77CNHz-4">
          <mxGeometry width="50" height="50" relative="1" as="geometry">
            <mxPoint x="215" y="300" as="sourcePoint" />
            <mxPoint x="265" y="250" as="targetPoint" />
            <Array as="points">
              <mxPoint x="215" y="150" />
            </Array>
          </mxGeometry>
        </mxCell>
      </root>
    </mxGraphModel>
  </diagram>
</mxfile>
